<svg width="280" height="111" viewBox="0 0 280 111" fill="none" xmlns="http://www.w3.org/2000/svg">
<path d="M55.1853 0.363419L102.704 27.7981V82.6675L55.1853 110.102L7.66702 82.6675V27.7981L55.1853 0.363419Z" fill="#D9D9D9"/>
<path d="M129.675 73.019L133.14 40.3373H139.086L136.839 59.9089L136.043 66.6512H136.464L142.411 47.4543H148.732L148.451 66.6512H148.872L150.136 60.1898L154.491 40.3373H160.156L152.712 73.019H143.815L144.518 54.9458H144.049L138.571 73.019H129.675ZM161.121 73.019L161.964 67.8686H169.034L172.78 45.4877H165.71L166.552 40.3373H187.622L186.78 45.4877H179.709L175.964 67.8686H183.034L182.191 73.019H161.121ZM210.032 46.0496L205.537 73.019H198.607L203.102 46.0496H193.644L194.58 40.3373H220.426L219.49 46.0496H210.032ZM233.003 73.5809C230.287 73.5809 227.853 73.1439 225.699 72.2698C223.576 71.3958 222.015 70.1629 221.017 68.5709L225.371 64.1697C226.339 65.4182 227.556 66.3547 229.023 66.979C230.49 67.5721 231.957 67.8686 233.424 67.8686C235.204 67.8686 236.546 67.4472 237.451 66.6044C238.387 65.7304 238.856 64.5442 238.856 63.0459C238.856 61.9534 238.544 61.1575 237.919 60.658C237.326 60.1274 236.374 59.706 235.063 59.3938L231.832 58.6447C229.46 58.114 227.728 57.1308 226.635 55.6949C225.574 54.2278 225.043 52.4798 225.043 50.4509C225.043 48.8277 225.324 47.3606 225.886 46.0496C226.479 44.7386 227.322 43.6149 228.414 42.6784C229.507 41.742 230.834 41.0241 232.394 40.5246C233.955 40.0252 235.703 39.7755 237.638 39.7755C239.979 39.7755 242.102 40.1813 244.006 40.9929C245.91 41.8044 247.33 42.9282 248.267 44.364L243.725 48.5312C243.007 47.5323 242.102 46.7675 241.009 46.2369C239.948 45.675 238.715 45.3941 237.311 45.3941C235.594 45.3941 234.314 45.7843 233.471 46.5647C232.628 47.345 232.207 48.3907 232.207 49.7017C232.207 50.6382 232.488 51.3561 233.05 51.8555C233.643 52.355 234.673 52.792 236.14 53.1665L239.23 53.9625C243.788 55.1174 246.066 57.8799 246.066 62.25C246.066 63.9356 245.77 65.4807 245.177 66.8853C244.615 68.2588 243.772 69.4449 242.648 70.4438C241.525 71.4427 240.151 72.223 238.528 72.7849C236.905 73.3155 235.063 73.5809 233.003 73.5809ZM263.466 61.6413L262.904 49.8422L264.449 40.3373H271.987L270.395 49.8422L265.9 61.6413H263.466ZM262.857 73.5809C261.39 73.5809 260.329 73.2999 259.673 72.7381C259.049 72.145 258.737 71.4427 258.737 70.6311C258.737 70.4438 258.752 70.2097 258.783 69.9288C258.815 69.6166 258.893 69.1016 259.018 68.3836C259.174 67.3848 259.642 66.5576 260.422 65.9021C261.203 65.2154 262.373 64.872 263.934 64.872C265.401 64.872 266.447 65.1685 267.071 65.7616C267.726 66.3235 268.054 67.0102 268.054 67.8218C268.054 68.0091 268.039 68.2588 268.007 68.5709C267.976 68.8519 267.898 69.3513 267.773 70.0692C267.617 71.0681 267.149 71.9109 266.369 72.5976C265.588 73.2531 264.418 73.5809 262.857 73.5809Z" fill="url(#paint0_linear_14_88)"/>
<path d="M63.8861 90.1044C65.5917 84.5423 68.1647 80.3958 71.6053 77.6648C76.7662 73.5684 84.9663 76.1144 87.9953 71.8892C91.0243 67.6638 85.8731 59.8936 84.0655 55.3088C82.2579 50.7241 90.9939 49.103 89.974 47.8014C89.294 46.9337 84.8795 44.4298 76.7302 40.2897C74.4147 27.0847 65.862 20.4822 51.0717 20.4822C28.8868 20.4822 20.4348 39.2906 20.4348 51.2533C20.4348 63.2161 30.6691 76.1037 45.248 78.8825C46.5517 80.7811 44.6714 84.5218 39.6074 90.1044" stroke="black" stroke-width="6.58432" stroke-linecap="round" stroke-linejoin="round"/>
<path fill-rule="evenodd" clip-rule="evenodd" d="M63.0791 38.7578C64.2162 43.1687 63.8778 46.2662 62.064 48.0498C60.2501 49.8335 57.1587 50.9998 52.7898 51.549C53.781 57.2384 52.5724 59.9075 49.1642 59.5563C45.7558 59.205 43.7081 57.7887 43.0205 55.3076C37.6939 56.8046 34.807 55.5518 34.3599 51.549C33.6889 45.5448 36.9267 40.7551 38.254 40.7551C39.5815 40.7551 43.0205 40.5936 43.0205 38.7578C43.0205 36.9219 47.0377 35.8847 50.6633 35.8847C54.2889 35.8847 52.1069 33.4407 57.0855 34.4064C60.4045 35.0501 62.4023 36.5005 63.0791 38.7578Z" fill="url(#paint1_linear_14_88)" stroke="black" stroke-width="6.58432" stroke-linejoin="round"/>
<path d="M43.9318 57.9041C45.7017 59.0024 48.1307 60.8288 49.1534 62.2555C51.7102 65.8228 53.784 67.9948 54.2378 70.2762" stroke="black" stroke-width="6.58432" stroke-linecap="round"/>
<defs>
<linearGradient id="paint0_linear_14_88" x1="129.545" y1="55.519" x2="279.545" y2="55.519" gradientUnits="userSpaceOnUse">
<stop stop-color="#2081DC"/>
<stop offset="1" stop-color="#A349A2"/>
</linearGradient>
<linearGradient id="paint1_linear_14_88" x1="49.0029" y1="34.1806" x2="49.0029" y2="59.5869" gradientUnits="userSpaceOnUse">
<stop stop-color="#2081DC"/>
<stop offset="1" stop-color="#836BC0"/>
</linearGradient>
</defs>
</svg>
