<svg width="196" height="392" viewBox="0 0 196 392" fill="none" xmlns="http://www.w3.org/2000/svg">
<rect y="109" width="196" height="185" fill="#C9813E"/>
<rect x="98.2472" y="195.753" width="138.227" height="138.943" transform="rotate(45 98.2472 195.753)" fill="#C9813E"/>
<circle cx="98" cy="98" r="98" fill="#836BC0"/>
<g clip-path="url(#clip0_2_3860)">
<path d="M96.5 99.4997C102.186 99.4997 107.745 97.8136 112.473 94.6545C117.201 91.4954 120.886 87.0052 123.062 81.7519C125.238 76.4985 125.807 70.7178 124.698 65.1409C123.588 59.5639 120.85 54.4411 116.829 50.4204C112.809 46.3996 107.686 43.6615 102.109 42.5521C96.5319 41.4428 90.7512 42.0122 85.4979 44.1882C80.2445 46.3642 75.7543 50.0492 72.5952 54.7771C69.4362 59.505 67.75 65.0635 67.75 70.7497C67.7576 78.3723 70.7891 85.6806 76.1791 91.0706C81.5691 96.4606 88.8774 99.4921 96.5 99.4997ZM96.5 51.583C100.291 51.583 103.996 52.7071 107.148 54.8132C110.3 56.9193 112.757 59.9127 114.208 63.4149C115.658 66.9172 116.038 70.771 115.298 74.4889C114.559 78.2069 112.733 81.6221 110.053 84.3026C107.372 86.9831 103.957 88.8085 100.239 89.5481C96.5213 90.2876 92.6675 89.9081 89.1652 88.4574C85.663 87.0067 82.6696 84.5501 80.5635 81.3981C78.4574 78.2462 77.3333 74.5405 77.3333 70.7497C77.3333 65.6664 79.3527 60.7913 82.9471 57.1968C86.5416 53.6024 91.4167 51.583 96.5 51.583V51.583Z" fill="#374957"/>
<path d="M96.5 109.086C85.0664 109.099 74.1048 113.647 66.02 121.731C57.9353 129.816 53.3877 140.778 53.375 152.211C53.375 153.482 53.8798 154.701 54.7784 155.599C55.6771 156.498 56.8958 157.003 58.1667 157.003C59.4375 157.003 60.6563 156.498 61.5549 155.599C62.4535 154.701 62.9583 153.482 62.9583 152.211C62.9583 143.315 66.4922 134.784 72.7825 128.494C79.0727 122.203 87.6042 118.67 96.5 118.67C105.396 118.67 113.927 122.203 120.218 128.494C126.508 134.784 130.042 143.315 130.042 152.211C130.042 153.482 130.546 154.701 131.445 155.599C132.344 156.498 133.563 157.003 134.833 157.003C136.104 157.003 137.323 156.498 138.222 155.599C139.12 154.701 139.625 153.482 139.625 152.211C139.612 140.778 135.065 129.816 126.98 121.731C118.895 113.647 107.934 109.099 96.5 109.086V109.086Z" fill="#374957"/>
</g>
<path d="M70.041 294V286.256H82.073V256.304H81.497L72.409 268.208L66.265 263.408L76.953 249.328H91.673V286.256H101.145V294H70.041ZM124.8 272.752C121.173 272.752 118.336 271.685 116.288 269.552C114.24 267.376 113.216 264.411 113.216 260.656C113.216 256.901 114.24 253.957 116.288 251.824C118.336 249.648 121.173 248.56 124.8 248.56C128.427 248.56 131.264 249.648 133.312 251.824C135.36 253.957 136.384 256.901 136.384 260.656C136.384 264.411 135.36 267.376 133.312 269.552C131.264 271.685 128.427 272.752 124.8 272.752ZM124.8 267.824C126.293 267.824 127.445 267.376 128.256 266.48C129.109 265.541 129.536 264.219 129.536 262.512V258.8C129.536 257.093 129.109 255.792 128.256 254.896C127.445 253.957 126.293 253.488 124.8 253.488C123.307 253.488 122.133 253.957 121.28 254.896C120.469 255.792 120.064 257.093 120.064 258.8V262.512C120.064 264.219 120.469 265.541 121.28 266.48C122.133 267.376 123.307 267.824 124.8 267.824Z" fill="white" fill-opacity="0.8"/>
<defs>
<clipPath id="clip0_2_3860">
<rect width="115" height="115" fill="white" transform="translate(39 42)"/>
</clipPath>
</defs>
</svg>
