<svg width="63" height="63" viewBox="0 0 63 63" fill="none" xmlns="http://www.w3.org/2000/svg">
<circle cx="31.5" cy="31.5" r="31.5" fill="#836BC0"/>
<g clip-path="url(#clip0_2_3863)">
<path d="M31.5 31.4999C33.3295 31.4999 35.1179 30.9574 36.639 29.941C38.1602 28.9246 39.3458 27.4799 40.0459 25.7897C40.746 24.0995 40.9292 22.2396 40.5723 20.4453C40.2154 18.651 39.3344 17.0028 38.0407 15.7092C36.7471 14.4155 35.0989 13.5346 33.3046 13.1776C31.5103 12.8207 29.6504 13.0039 27.9602 13.704C26.27 14.4041 24.8253 15.5897 23.8089 17.1109C22.7925 18.632 22.25 20.4204 22.25 22.2499C22.2524 24.7024 23.2278 27.0538 24.962 28.7879C26.6961 30.5221 29.0475 31.4975 31.5 31.4999ZM31.5 16.0832C32.7197 16.0832 33.9119 16.4449 34.926 17.1225C35.9401 17.8001 36.7305 18.7632 37.1973 19.89C37.664 21.0168 37.7861 22.2567 37.5482 23.453C37.3102 24.6492 36.7229 25.748 35.8605 26.6104C34.9981 27.4728 33.8993 28.0601 32.7031 28.2981C31.5068 28.536 30.2669 28.4139 29.1401 27.9472C28.0133 27.4804 27.0502 26.69 26.3726 25.6759C25.695 24.6618 25.3333 23.4696 25.3333 22.2499C25.3333 20.6144 25.983 19.0459 27.1395 17.8894C28.296 16.7329 29.8645 16.0832 31.5 16.0832V16.0832Z" fill="#374957"/>
<path d="M31.5 34.5843C27.8214 34.5884 24.2946 36.0515 21.6934 38.6527C19.0922 41.2539 17.6291 44.7806 17.625 48.4593C17.625 48.8682 17.7874 49.2603 18.0765 49.5494C18.3657 49.8385 18.7578 50.0009 19.1667 50.0009C19.5755 50.0009 19.9677 49.8385 20.2568 49.5494C20.5459 49.2603 20.7083 48.8682 20.7083 48.4593C20.7083 45.5971 21.8453 42.8522 23.8691 40.8284C25.893 38.8046 28.6379 37.6676 31.5 37.6676C34.3621 37.6676 37.107 38.8046 39.1309 40.8284C41.1547 42.8522 42.2917 45.5971 42.2917 48.4593C42.2917 48.8682 42.4541 49.2603 42.7432 49.5494C43.0323 49.8385 43.4245 50.0009 43.8333 50.0009C44.2422 50.0009 44.6343 49.8385 44.9235 49.5494C45.2126 49.2603 45.375 48.8682 45.375 48.4593C45.3709 44.7806 43.9078 41.2539 41.3066 38.6527C38.7054 36.0515 35.1786 34.5884 31.5 34.5843V34.5843Z" fill="#374957"/>
</g>
<defs>
<clipPath id="clip0_2_3863">
<rect width="37" height="37" fill="white" transform="translate(13 13)"/>
</clipPath>
</defs>
</svg>
