<svg width="196" height="381" viewBox="0 0 196 381" fill="none" xmlns="http://www.w3.org/2000/svg">
<rect y="98" width="196" height="185" fill="#616264"/>
<rect x="98.2472" y="184.753" width="138.227" height="138.943" transform="rotate(45 98.2472 184.753)" fill="#616264"/>
<circle cx="98" cy="98" r="98" fill="#836BC0"/>
<g clip-path="url(#clip0_2_3862)">
<path d="M96.5 99.4997C102.186 99.4997 107.745 97.8136 112.473 94.6545C117.201 91.4954 120.886 87.0052 123.062 81.7519C125.238 76.4985 125.807 70.7178 124.698 65.1409C123.588 59.5639 120.85 54.4411 116.829 50.4204C112.809 46.3996 107.686 43.6615 102.109 42.5521C96.5319 41.4428 90.7512 42.0122 85.4979 44.1882C80.2445 46.3642 75.7543 50.0492 72.5952 54.7771C69.4362 59.505 67.75 65.0635 67.75 70.7497C67.7576 78.3723 70.7891 85.6806 76.1791 91.0706C81.5691 96.4606 88.8774 99.4921 96.5 99.4997ZM96.5 51.583C100.291 51.583 103.996 52.7071 107.148 54.8132C110.3 56.9193 112.757 59.9127 114.208 63.4149C115.658 66.9172 116.038 70.771 115.298 74.4889C114.559 78.2069 112.733 81.6221 110.053 84.3026C107.372 86.9831 103.957 88.8085 100.239 89.5481C96.5213 90.2876 92.6675 89.9081 89.1652 88.4574C85.663 87.0067 82.6696 84.5501 80.5635 81.3981C78.4574 78.2462 77.3333 74.5405 77.3333 70.7497C77.3333 65.6664 79.3527 60.7913 82.9471 57.1968C86.5416 53.6024 91.4167 51.583 96.5 51.583V51.583Z" fill="#374957"/>
<path d="M96.5 109.086C85.0664 109.099 74.1048 113.647 66.02 121.731C57.9353 129.816 53.3877 140.778 53.375 152.211C53.375 153.482 53.8798 154.701 54.7784 155.599C55.6771 156.498 56.8958 157.003 58.1667 157.003C59.4375 157.003 60.6563 156.498 61.5549 155.599C62.4535 154.701 62.9583 153.482 62.9583 152.211C62.9583 143.315 66.4922 134.784 72.7825 128.494C79.0727 122.203 87.6042 118.67 96.5 118.67C105.396 118.67 113.927 122.203 120.218 128.494C126.508 134.784 130.042 143.315 130.042 152.211C130.042 153.482 130.546 154.701 131.445 155.599C132.344 156.498 133.563 157.003 134.833 157.003C136.104 157.003 137.323 156.498 138.222 155.599C139.12 154.701 139.625 153.482 139.625 152.211C139.612 140.778 135.065 129.816 126.98 121.731C118.895 113.647 107.934 109.099 96.5 109.086V109.086Z" fill="#374957"/>
</g>
<path d="M98.545 282H66.417V273.232L80.497 261.52C82.929 259.429 84.6783 257.616 85.745 256.08C86.8117 254.544 87.345 252.923 87.345 251.216V250.576C87.345 248.699 86.7903 247.291 85.681 246.352C84.5717 245.371 83.0783 244.88 81.201 244.88C79.0677 244.88 77.425 245.499 76.273 246.736C75.121 247.973 74.3103 249.445 73.841 251.152L65.457 247.952C65.969 246.416 66.673 244.965 67.569 243.6C68.465 242.192 69.5957 240.976 70.961 239.952C72.369 238.928 73.9903 238.117 75.825 237.52C77.6597 236.88 79.7717 236.56 82.161 236.56C84.593 236.56 86.769 236.901 88.689 237.584C90.609 238.267 92.2303 239.205 93.553 240.4C94.8757 241.595 95.8783 243.024 96.561 244.688C97.2437 246.309 97.585 248.08 97.585 250C97.585 251.877 97.265 253.605 96.625 255.184C96.0277 256.72 95.1743 258.171 94.065 259.536C92.9983 260.901 91.7183 262.224 90.225 263.504C88.7743 264.784 87.217 266.064 85.553 267.344L77.041 273.936H98.545V282ZM123.8 260.752C120.173 260.752 117.336 259.685 115.288 257.552C113.24 255.376 112.216 252.411 112.216 248.656C112.216 244.901 113.24 241.957 115.288 239.824C117.336 237.648 120.173 236.56 123.8 236.56C127.427 236.56 130.264 237.648 132.312 239.824C134.36 241.957 135.384 244.901 135.384 248.656C135.384 252.411 134.36 255.376 132.312 257.552C130.264 259.685 127.427 260.752 123.8 260.752ZM123.8 255.824C125.293 255.824 126.445 255.376 127.256 254.48C128.109 253.541 128.536 252.219 128.536 250.512V246.8C128.536 245.093 128.109 243.792 127.256 242.896C126.445 241.957 125.293 241.488 123.8 241.488C122.307 241.488 121.133 241.957 120.28 242.896C119.469 243.792 119.064 245.093 119.064 246.8V250.512C119.064 252.219 119.469 253.541 120.28 254.48C121.133 255.376 122.307 255.824 123.8 255.824Z" fill="white" fill-opacity="0.8"/>
<defs>
<clipPath id="clip0_2_3862">
<rect width="115" height="115" fill="white" transform="translate(39 42)"/>
</clipPath>
</defs>
</svg>
