<svg width="196" height="381" viewBox="0 0 196 381" fill="none" xmlns="http://www.w3.org/2000/svg">
<rect x="0.000244141" y="98" width="196" height="185" fill="#FF4D4D"/>
<rect x="98.2473" y="184.753" width="138.227" height="138.943" transform="rotate(45 98.2473 184.753)" fill="#FF4D4D"/>
<circle cx="98.0002" cy="98" r="98" fill="#836BC0"/>
<g clip-path="url(#clip0_2_3861)">
<path d="M96.5002 99.4997C102.186 99.4997 107.745 97.8136 112.473 94.6545C117.201 91.4954 120.886 87.0052 123.062 81.7519C125.238 76.4985 125.807 70.7178 124.698 65.1409C123.589 59.5639 120.85 54.4411 116.83 50.4204C112.809 46.3996 107.686 43.6615 102.109 42.5521C96.5321 41.4428 90.7515 42.0122 85.4981 44.1882C80.2447 46.3642 75.7546 50.0492 72.5955 54.7771C69.4364 59.505 67.7502 65.0635 67.7502 70.7497C67.7579 78.3723 70.7893 85.6806 76.1793 91.0706C81.5694 96.4606 88.8776 99.4921 96.5002 99.4997ZM96.5002 51.583C100.291 51.583 103.997 52.7071 107.149 54.8132C110.301 56.9193 112.757 59.9127 114.208 63.4149C115.659 66.9172 116.038 70.771 115.299 74.4889C114.559 78.2069 112.734 81.6221 110.053 84.3026C107.373 86.9831 103.957 88.8085 100.239 89.5481C96.5215 90.2876 92.6677 89.9081 89.1655 88.4574C85.6632 87.0067 82.6698 84.5501 80.5637 81.3981C78.4577 78.2462 77.3336 74.5405 77.3336 70.7497C77.3336 65.6664 79.3529 60.7913 82.9474 57.1968C86.5418 53.6024 91.4169 51.583 96.5002 51.583V51.583Z" fill="#374957"/>
<path d="M96.5002 109.086C85.0667 109.099 74.105 113.647 66.0203 121.731C57.9355 129.816 53.3879 140.778 53.3752 152.211C53.3752 153.482 53.8801 154.701 54.7787 155.599C55.6773 156.498 56.8961 157.003 58.1669 157.003C59.4377 157.003 60.6565 156.498 61.5551 155.599C62.4537 154.701 62.9586 153.482 62.9586 152.211C62.9586 143.315 66.4924 134.784 72.7827 128.494C79.073 122.203 87.6044 118.67 96.5002 118.67C105.396 118.67 113.927 122.203 120.218 128.494C126.508 134.784 130.042 143.315 130.042 152.211C130.042 153.482 130.547 154.701 131.445 155.599C132.344 156.498 133.563 157.003 134.834 157.003C136.104 157.003 137.323 156.498 138.222 155.599C139.12 154.701 139.625 153.482 139.625 152.211C139.613 140.778 135.065 129.816 126.98 121.731C118.895 113.647 107.934 109.099 96.5002 109.086V109.086Z" fill="#374957"/>
</g>
<path d="M75.4972 254.992C77.9719 254.992 79.7639 254.523 80.8732 253.584C82.0252 252.645 82.6012 251.493 82.6012 250.128V249.68C82.6012 248.059 82.0466 246.779 80.9372 245.84C79.8706 244.859 78.3346 244.368 76.3292 244.368C74.4946 244.368 72.7666 244.837 71.1452 245.776C69.5666 246.672 68.2226 247.973 67.1132 249.68L61.0332 244.048C61.8866 242.939 62.8252 241.936 63.8492 241.04C64.8732 240.101 66.0039 239.312 67.2412 238.672C68.4786 237.989 69.8652 237.477 71.4012 237.136C72.9799 236.752 74.7506 236.56 76.7132 236.56C79.1452 236.56 81.3426 236.837 83.3052 237.392C85.2679 237.947 86.9319 238.757 88.2972 239.824C89.7052 240.848 90.7932 242.085 91.5612 243.536C92.3292 244.987 92.7132 246.608 92.7132 248.4C92.7132 249.808 92.4786 251.088 92.0092 252.24C91.5399 253.392 90.8999 254.395 90.0892 255.248C89.3212 256.101 88.4039 256.805 87.3372 257.36C86.3132 257.872 85.2039 258.235 84.0092 258.448V258.832C86.7399 259.301 89.0012 260.453 90.7932 262.288C92.6279 264.08 93.5452 266.512 93.5452 269.584C93.5452 271.589 93.1186 273.403 92.2652 275.024C91.4546 276.645 90.2812 278.032 88.7452 279.184C87.2519 280.336 85.4172 281.232 83.2412 281.872C81.1079 282.469 78.7186 282.768 76.0732 282.768C73.8119 282.768 71.8066 282.533 70.0572 282.064C68.3506 281.595 66.8359 280.976 65.5132 280.208C64.1906 279.397 63.0386 278.48 62.0572 277.456C61.1186 276.389 60.2866 275.301 59.5612 274.192L66.6652 268.688C67.6466 270.523 68.8626 272.037 70.3132 273.232C71.8066 274.384 73.7906 274.96 76.2652 274.96C78.5692 274.96 80.3399 274.427 81.5772 273.36C82.8146 272.293 83.4332 270.821 83.4332 268.944V268.496C83.4332 266.661 82.7292 265.296 81.3212 264.4C79.9132 263.461 77.9506 262.992 75.4332 262.992H71.2732V254.992H75.4972ZM118.8 260.752C115.174 260.752 112.336 259.685 110.288 257.552C108.24 255.376 107.216 252.411 107.216 248.656C107.216 244.901 108.24 241.957 110.288 239.824C112.336 237.648 115.174 236.56 118.8 236.56C122.427 236.56 125.264 237.648 127.312 239.824C129.36 241.957 130.384 244.901 130.384 248.656C130.384 252.411 129.36 255.376 127.312 257.552C125.264 259.685 122.427 260.752 118.8 260.752ZM118.8 255.824C120.294 255.824 121.446 255.376 122.256 254.48C123.11 253.541 123.536 252.219 123.536 250.512V246.8C123.536 245.093 123.11 243.792 122.256 242.896C121.446 241.957 120.294 241.488 118.8 241.488C117.307 241.488 116.134 241.957 115.28 242.896C114.47 243.792 114.064 245.093 114.064 246.8V250.512C114.064 252.219 114.47 253.541 115.28 254.48C116.134 255.376 117.307 255.824 118.8 255.824Z" fill="white" fill-opacity="0.8"/>
<defs>
<clipPath id="clip0_2_3861">
<rect width="115" height="115" fill="white" transform="translate(39.0002 42)"/>
</clipPath>
</defs>
</svg>
