<svg width="96" height="111" viewBox="0 0 96 111" fill="none" xmlns="http://www.w3.org/2000/svg">
<path d="M48.1853 0.363419L95.7035 27.7981V82.6675L48.1853 110.102L0.667019 82.6675V27.7981L48.1853 0.363419Z" fill="#D9D9D9"/>
<path d="M56.8861 90.1044C58.5917 84.5423 61.1647 80.3958 64.6053 77.6648C69.7662 73.5684 77.9663 76.1144 80.9953 71.8892C84.0243 67.6638 78.8731 59.8936 77.0655 55.3088C75.2579 50.7241 83.9939 49.103 82.974 47.8014C82.294 46.9337 77.8795 44.4298 69.7302 40.2897C67.4147 27.0847 58.862 20.4822 44.0717 20.4822C21.8868 20.4822 13.4348 39.2906 13.4348 51.2533C13.4348 63.2161 23.6691 76.1037 38.248 78.8825C39.5517 80.7811 37.6714 84.5218 32.6074 90.1044" stroke="black" stroke-width="6.58432" stroke-linecap="round" stroke-linejoin="round"/>
<path fill-rule="evenodd" clip-rule="evenodd" d="M56.0791 38.7578C57.2162 43.1687 56.8778 46.2662 55.064 48.0498C53.2501 49.8335 50.1587 50.9998 45.7898 51.549C46.781 57.2384 45.5724 59.9075 42.1642 59.5563C38.7558 59.205 36.7081 57.7887 36.0205 55.3076C30.6939 56.8046 27.807 55.5518 27.3599 51.549C26.6889 45.5448 29.9267 40.7551 31.254 40.7551C32.5815 40.7551 36.0205 40.5936 36.0205 38.7578C36.0205 36.9219 40.0377 35.8847 43.6633 35.8847C47.2889 35.8847 45.1069 33.4407 50.0855 34.4064C53.4045 35.0501 55.4023 36.5005 56.0791 38.7578Z" fill="url(#paint0_linear_0_1)" stroke="black" stroke-width="6.58432" stroke-linejoin="round"/>
<path d="M36.9318 57.9041C38.7017 59.0024 41.1307 60.8288 42.1534 62.2555C44.7102 65.8228 46.784 67.9948 47.2378 70.2762" stroke="black" stroke-width="6.58432" stroke-linecap="round"/>
<defs>
<linearGradient id="paint0_linear_0_1" x1="42.0029" y1="34.1806" x2="42.0029" y2="59.5869" gradientUnits="userSpaceOnUse">
<stop stop-color="#2081DC"/>
<stop offset="1" stop-color="#836BC0"/>
</linearGradient>
</defs>
</svg>
